<svg width="128" height="128" xmlns="http://www.w3.org/2000/svg" xmlns:xlink="http://www.w3.org/1999/xlink" overflow="hidden"><defs><clipPath id="clip0"><path d="M945 408 1073 408 1073 536 945 536Z" fill-rule="evenodd" clip-rule="evenodd"/></clipPath><linearGradient x1="1069" y1="533" x2="946" y2="410" gradientUnits="userSpaceOnUse" spreadMethod="reflect" id="fill1"><stop offset="0" stop-color="#46204C"/><stop offset="0.5" stop-color="#9949A7"/><stop offset="1" stop-color="#B759C7"/></linearGradient></defs><g clip-path="url(#clip0)" transform="translate(-945 -408)"><path d="M946 471.5C946 437.534 973.534 410 1007.5 410 1041.47 410 1069 437.534 1069 471.5 1069 505.466 1041.47 533 1007.5 533 973.534 533 946 505.466 946 471.5Z" fill="url(#fill1)" fill-rule="evenodd"/><path d="M983.5 445.5C984.526 441.343 987.074 437.884 990.5 436 987.07 434.123 984.519 430.661 983.5 426.5 982.474 430.657 979.926 434.116 976.5 436 979.926 437.884 982.474 441.343 983.5 445.5Z" stroke="#000000" stroke-width="3" stroke-miterlimit="8" fill="#F2F2F2" fill-rule="evenodd"/><path d="M1056.01 471.884 1069.98 471.884 1070 472.077C1070 476.336 1069.57 480.494 1068.74 484.51L1068.28 486 1056.01 486ZM1032 471.85 1050.63 471.85 1050.63 485.966 1032 485.966ZM1008 471.85 1026.63 471.85 1026.63 485.966 1008 485.966ZM1056.01 453.701 1066.89 453.701 1068.74 459.643 1069.57 467.817 1056.01 467.817ZM1032 453.701 1050.63 453.701 1050.63 467.817 1032 467.817ZM1008 453.701 1026.63 453.701 1026.63 467.817 1008 467.817ZM1056.01 436.183 1058.25 436.183 1059.41 437.582C1061.64 440.864 1063.56 444.371 1065.13 448.062L1065.83 450.299 1056.01 450.299ZM1032 436.149 1050.63 436.149 1050.63 450.264 1032 450.264ZM1008 436.149 1026.63 436.149 1026.63 450.264 1008 450.264ZM1032 418 1037.26 418 1042.66 420.917 1050.63 427.456 1050.63 432.116 1032 432.116ZM1008 418 1026.63 418 1026.63 432.116 1008 432.116Z" fill="#B260C0" fill-rule="evenodd"/><path d="M1010.78 453.087C1012.99 453.273 1015.2 453.76 1017.34 454.556L1003.04 468.869 1006.06 480.16 1017.34 483.182 1031.48 468.869C1034.66 477.457 1032.75 486.999 1026.71 493.678 1020.68 500.358 1011.3 503.22 1002.57 500.835L978.426 525 974.053 522.624C970.787 520.415 967.744 517.899 964.965 515.118L960 509.093 985.408 483.659C982.866 474.912 985.726 465.529 992.398 459.327 997.522 454.675 1004.16 452.528 1010.78 453.087Z" stroke="#232524" stroke-width="4" stroke-miterlimit="8" fill="#BFBFBF" fill-rule="evenodd"/><path d="M947 471.5C947 437.534 974.534 410 1008.5 410 1042.47 410 1070 437.534 1070 471.5 1070 505.466 1042.47 533 1008.5 533 974.534 533 947 505.466 947 471.5Z" stroke="#232524" stroke-width="4" stroke-miterlimit="8" fill="none" fill-rule="evenodd"/></g></svg>